<svg xmlns="http://www.w3.org/2000/svg" viewBox="0 0 512 512" width="512" height="512">
  <!-- Background -->
  <rect width="512" height="512" fill="#1e40af" rx="64"/>

  <!-- Dashboard grid icon -->
  <g transform="translate(128, 128)">
    <!-- Top left - Calendar -->
    <rect x="0" y="0" width="100" height="100" fill="#ffffff" rx="8"/>
    <rect x="10" y="10" width="80" height="15" fill="#60a5fa" rx="4"/>
    <rect x="10" y="35" width="35" height="25" fill="#93c5fd" rx="4"/>
    <rect x="55" y="35" width="35" height="25" fill="#93c5fd" rx="4"/>
    <rect x="10" y="70" width="35" height="20" fill="#dbeafe" rx="4"/>
    <rect x="55" y="70" width="35" height="20" fill="#dbeafe" rx="4"/>

    <!-- Top right - Tasks -->
    <rect x="156" y="0" width="100" height="100" fill="#ffffff" rx="8"/>
    <circle cx="176" cy="25" r="8" fill="#60a5fa"/>
    <rect x="194" y="20" width="52" height="10" fill="#93c5fd" rx="3"/>
    <circle cx="176" cy="50" r="8" fill="#60a5fa"/>
    <rect x="194" y="45" width="52" height="10" fill="#93c5fd" rx="3"/>
    <circle cx="176" cy="75" r="8" fill="#60a5fa"/>
    <rect x="194" y="70" width="52" height="10" fill="#93c5fd" rx="3"/>

    <!-- Bottom left - Shopping -->
    <rect x="0" y="156" width="100" height="100" fill="#ffffff" rx="8"/>
    <path d="M 20 176 L 30 196 L 70 196 L 80 176 Z" fill="#60a5fa"/>
    <circle cx="35" cy="236" r="8" fill="#93c5fd"/>
    <circle cx="65" cy="236" r="8" fill="#93c5fd"/>
    <rect x="25" y="196" width="50" height="30" fill="#dbeafe" rx="4"/>

    <!-- Bottom right - Family -->
    <rect x="156" y="156" width="100" height="100" fill="#ffffff" rx="8"/>
    <circle cx="190" cy="185" r="12" fill="#60a5fa"/>
    <circle cx="222" cy="185" r="12" fill="#60a5fa"/>
    <ellipse cx="190" cy="220" rx="18" ry="22" fill="#93c5fd"/>
    <ellipse cx="222" cy="220" rx="18" ry="22" fill="#93c5fd"/>
    <circle cx="176" cy="235" r="8" fill="#dbeafe"/>
    <circle cx="236" cy="235" r="8" fill="#dbeafe"/>
  </g>
</svg>
